<?xml version="1.0" encoding="UTF-8"?>
<!DOCTYPE svg PUBLIC "-//W3C//DTD SVG 1.1//EN" "http://www.w3.org/Graphics/SVG/1.1/DTD/svg11.dtd">
<svg version="1.1" xmlns="http://www.w3.org/2000/svg" xmlns:xlink="http://www.w3.org/1999/xlink" x="0" y="0" width="38" height="38" viewBox="0, 0, 38, 38">
  <g id="Livello_1">
    <g>
      <path d="M19.597,7.264 C17.98,2.748 12.307,3.261 10.947,7.264 L19.458,18.491 L27.969,7.264 C26.609,3.261 20.936,2.748 19.319,7.264" fill="#22D56E"/>
      <path d="M19.597,7.264 C17.98,2.748 12.307,3.261 10.947,7.264 L19.458,18.491 L27.969,7.264 C26.609,3.261 20.936,2.748 19.319,7.264" fill-opacity="0" stroke="#22D56E" stroke-width="1"/>
    </g>
    <g>
      <path d="M19.589,31.615 C17.972,36.131 12.299,35.618 10.939,31.615 L19.45,20.388 L27.961,31.615 C26.601,35.618 20.928,36.131 19.311,31.615" fill="#22D56E"/>
      <path d="M19.589,31.615 C17.972,36.131 12.299,35.618 10.939,31.615 L19.45,20.388 L27.961,31.615 C26.601,35.618 20.928,36.131 19.311,31.615" fill-opacity="0" stroke="#22D56E" stroke-width="1"/>
    </g>
    <g>
      <path d="M7.285,19.597 C2.769,17.98 3.282,12.307 7.285,10.947 L18.512,19.458 L7.285,27.969 C3.282,26.609 2.769,20.936 7.285,19.319" fill="#22D56E"/>
      <path d="M7.285,19.597 C2.769,17.98 3.282,12.307 7.285,10.947 L18.512,19.458 L7.285,27.969 C3.282,26.609 2.769,20.936 7.285,19.319" fill-opacity="0" stroke="#22D56E" stroke-width="1"/>
    </g>
    <g>
      <path d="M31.615,19.597 C36.131,17.98 35.618,12.307 31.615,10.947 L20.388,19.458 L31.615,27.969 C35.618,26.609 36.131,20.936 31.615,19.319" fill="#22D56E"/>
      <path d="M31.615,19.597 C36.131,17.98 35.618,12.307 31.615,10.947 L20.388,19.458 L31.615,27.969 C35.618,26.609 36.131,20.936 31.615,19.319" fill-opacity="0" stroke="#22D56E" stroke-width="1"/>
    </g>
  </g>
</svg>
