<?xml version="1.0" encoding="UTF-8"?>
<!DOCTYPE svg PUBLIC "-//W3C//DTD SVG 1.1//EN" "http://www.w3.org/Graphics/SVG/1.1/DTD/svg11.dtd">
<svg version="1.1" xmlns="http://www.w3.org/2000/svg" xmlns:xlink="http://www.w3.org/1999/xlink" x="0" y="0" width="38.118" height="38.06" viewBox="0, 0, 38.118, 38.06">
  <g id="quadrifoglio" transform="translate(0.118, 0.06)">
    <g>
      <path d="M19.597,5.22 C17.98,-0.118 12.307,0.487 10.947,5.22 L19.458,18.491 L27.969,5.22 C26.609,0.487 20.936,-0.118 19.319,5.22" fill="#22D56E"/>
      <path d="M19.597,5.22 C17.98,-0.118 12.307,0.487 10.947,5.22 L19.458,18.491 L27.969,5.22 C26.609,0.487 20.936,-0.118 19.319,5.22" fill-opacity="0" stroke="#22D56E" stroke-width="1"/>
    </g>
    <g>
      <path d="M19.589,33.72 C17.972,39.058 12.299,38.453 10.939,33.72 L19.45,20.449 L27.961,33.72 C26.601,38.453 20.928,39.058 19.311,33.72" fill="#22D56E"/>
      <path d="M19.589,33.72 C17.972,39.058 12.299,38.453 10.939,33.72 L19.45,20.449 L27.961,33.72 C26.601,38.453 20.928,39.058 19.311,33.72" fill-opacity="0" stroke="#22D56E" stroke-width="1"/>
    </g>
    <g>
      <path d="M33.72,19.552 C39.058,17.935 38.453,12.262 33.72,10.902 L20.474,19.45 L33.72,27.924 C38.453,26.564 39.058,20.891 33.72,19.274" fill="#268135"/>
      <path d="M33.72,19.552 C39.058,17.935 38.453,12.262 33.72,10.902 L20.474,19.45 L33.72,27.924 C38.453,26.564 39.058,20.891 33.72,19.274" fill-opacity="0" stroke="#268135" stroke-width="1"/>
    </g>
    <g>
      <path d="M5.162,19.586 C-0.177,17.969 0.429,12.295 5.162,10.936 L18.433,19.446 L5.162,27.957 C0.429,26.598 -0.177,20.924 5.162,19.307" fill="#268135"/>
      <path d="M5.162,19.586 C-0.177,17.969 0.429,12.295 5.162,10.936 L18.433,19.446 L5.162,27.957 C0.429,26.598 -0.177,20.924 5.162,19.307" fill-opacity="0" stroke="#268135" stroke-width="1"/>
    </g>
  </g>
</svg>
